<svg width="199" height="81" viewBox="0 0 199 81" fill="none" xmlns="http://www.w3.org/2000/svg">
<ellipse cx="14.2785" cy="8.45316" rx="14.2785" ry="8.45316" transform="matrix(-0.77313 -0.634248 -0.634248 0.77313 134.866 32.3664)" fill="#F3BD13"/>
<ellipse cx="80.4005" cy="29.8457" rx="14.2785" ry="8.45316" transform="rotate(-39.3642 80.4005 29.8457)" fill="#F3BD13"/>
<g filter="url(#filter0_d_631_222)">
<path d="M106.944 14.9732C108.656 11.8188 112.477 10.471 115.789 11.8536L120.364 13.7635C123.676 15.1461 125.405 18.8105 124.366 22.2457L120.501 35.022C119.301 38.9894 114.934 41.0496 111.109 39.4528L104.032 36.4986C100.207 34.9019 98.6014 30.3484 100.578 26.7053L106.944 14.9732Z" fill="#F3BD13"/>
</g>
<g filter="url(#filter1_d_631_222)">
<path d="M91.9221 14.9732C90.2104 11.8188 86.3894 10.471 83.0774 11.8536L78.5021 13.7635C75.1901 15.1461 73.4614 18.8105 74.5005 22.2457L78.3652 35.022C79.5653 38.9894 83.9322 41.0496 87.7572 39.4528L94.834 36.4986C98.659 34.9019 100.265 30.3484 98.2882 26.7053L91.9221 14.9732Z" fill="#F3BD13"/>
</g>
<g filter="url(#filter2_d_631_222)">
<path d="M88.0691 12.4871C87.6685 8.37449 90.9005 4.81238 95.0326 4.81238H103.865C107.997 4.81238 111.229 8.37449 110.828 12.4871L108.693 34.4094C108.344 37.9938 105.331 40.7276 101.73 40.7276H97.1679C93.5665 40.7276 90.5535 37.9938 90.2044 34.4094L88.0691 12.4871Z" fill="#F3BD13"/>
</g>
<path d="M86.3755 20.5346C86.3755 19.5097 87.2063 18.679 88.2311 18.679H92.3986C93.4234 18.679 94.2542 19.5097 94.2542 20.5346V22.7805C94.2542 24.9562 92.4905 26.7199 90.3149 26.7199C88.1392 26.7199 86.3755 24.9562 86.3755 22.7805V20.5346Z" fill="#FFEDB2"/>
<path d="M104.654 20.5346C104.654 19.5097 105.485 18.679 106.51 18.679H110.677C111.702 18.679 112.533 19.5097 112.533 20.5346V22.7805C112.533 24.9562 110.769 26.7199 108.594 26.7199C106.418 26.7199 104.654 24.9562 104.654 22.7805V20.5346Z" fill="#FFEDB2"/>
<path d="M13.508 57.3964H23.06V59.7964H13.508V57.3964ZM16.268 66.9724V68.4604H20.276V66.9724H16.268ZM16.268 70.4764V71.9644H20.276V70.4764H16.268ZM16.268 63.4924V64.9564H20.276V63.4924H16.268ZM14.036 61.3324H22.604V74.1244H14.036V61.3324ZM16.844 58.6204L19.724 58.9564C19.532 59.6924 19.34 60.4124 19.148 61.1164C18.956 61.8044 18.772 62.4044 18.596 62.9164L16.412 62.5084C16.524 61.9484 16.62 61.3084 16.7 60.5884C16.78 59.8684 16.828 59.2124 16.844 58.6204ZM15.932 74.3404L18.092 75.7084C17.58 76.3164 16.932 76.9244 16.148 77.5324C15.38 78.1564 14.644 78.6524 13.94 79.0204C13.732 78.7644 13.46 78.4684 13.124 78.1324C12.788 77.8124 12.484 77.5404 12.212 77.3164C12.66 77.0924 13.116 76.8124 13.58 76.4764C14.06 76.1404 14.508 75.7804 14.924 75.3964C15.34 75.0124 15.676 74.6604 15.932 74.3404ZM18.74 75.7084L20.684 74.4124C21.02 74.7164 21.372 75.0524 21.74 75.4204C22.124 75.7884 22.484 76.1564 22.82 76.5244C23.172 76.8924 23.452 77.2284 23.66 77.5324L21.572 78.9964C21.396 78.6924 21.14 78.3484 20.804 77.9644C20.484 77.5804 20.14 77.1884 19.772 76.7884C19.42 76.3884 19.076 76.0284 18.74 75.7084ZM4.364 61.8124V62.9164H10.124V61.8124H4.364ZM4.364 59.0764V60.1804H10.124V59.0764H4.364ZM1.964 57.3244H12.644V64.6684H1.964V57.3244ZM4.892 70.1644L6.38 69.7324C6.588 70.2764 6.772 70.8684 6.932 71.5084C7.108 72.1484 7.228 72.7084 7.292 73.1884L5.708 73.6444C5.676 73.1644 5.58 72.6044 5.42 71.9644C5.276 71.3084 5.1 70.7084 4.892 70.1644ZM4.724 74.4604L6.74 74.1724C6.868 74.8124 6.972 75.5164 7.052 76.2844C7.148 77.0524 7.196 77.7164 7.196 78.2764L5.084 78.6124C5.1 78.0364 5.068 77.3644 4.988 76.5964C4.924 75.8284 4.836 75.1164 4.724 74.4604ZM7.268 74.3164L9.164 73.8364C9.388 74.4124 9.588 75.0444 9.764 75.7324C9.956 76.4204 10.084 77.0204 10.148 77.5324L8.156 78.0844C8.108 77.5724 7.996 76.9644 7.82 76.2604C7.66 75.5564 7.476 74.9084 7.268 74.3164ZM9.812 73.8604L11.636 73.1644C11.924 73.6604 12.204 74.2044 12.476 74.7964C12.764 75.3724 12.98 75.8764 13.124 76.3084L11.204 77.1004C11.092 76.6684 10.9 76.1484 10.628 75.5404C10.372 74.9164 10.1 74.3564 9.812 73.8604ZM2.252 73.7884L4.364 74.6044C4.204 75.3244 3.988 76.0764 3.716 76.8604C3.46 77.6604 3.164 78.3404 2.828 78.9004L0.643999 77.8924C0.883999 77.5244 1.108 77.1084 1.316 76.6444C1.524 76.1804 1.708 75.7004 1.868 75.2044C2.028 74.7084 2.156 74.2364 2.252 73.7884ZM11.18 70.1404L12.788 69.5164C13.044 70.0924 13.292 70.7164 13.532 71.3884C13.788 72.0444 13.972 72.6124 14.084 73.0924L12.38 73.8124C12.284 73.3164 12.116 72.7244 11.876 72.0364C11.652 71.3484 11.42 70.7164 11.18 70.1404ZM1.532 73.5004C1.468 73.2924 1.364 72.9804 1.22 72.5644C1.092 72.1484 0.971999 71.8124 0.859999 71.5564C1.068 71.5084 1.268 71.4044 1.46 71.2444C1.668 71.0684 1.892 70.8524 2.132 70.5964C2.292 70.4204 2.54 70.1084 2.876 69.6604C3.228 69.1964 3.604 68.6604 4.004 68.0524C4.42 67.4284 4.78 66.7964 5.084 66.1564L7.148 66.8764C6.524 67.9164 5.828 68.9324 5.06 69.9244C4.292 70.9004 3.54 71.7324 2.804 72.4204V72.4444C2.804 72.4444 2.692 72.5084 2.468 72.6364C2.26 72.7484 2.052 72.8844 1.844 73.0444C1.636 73.2044 1.532 73.3564 1.532 73.5004ZM1.532 73.5004L1.484 71.9884L2.42 71.3884L6.308 71.1244C6.34 71.3804 6.396 71.6764 6.476 72.0124C6.556 72.3324 6.62 72.6044 6.668 72.8284C5.34 72.9404 4.332 73.0364 3.644 73.1164C2.956 73.1964 2.468 73.2604 2.18 73.3084C1.892 73.3564 1.676 73.4204 1.532 73.5004ZM1.604 69.7324C1.54 69.5084 1.436 69.2044 1.292 68.8204C1.148 68.4364 1.02 68.1164 0.907999 67.8604C1.036 67.8124 1.156 67.7404 1.268 67.6444C1.396 67.5324 1.508 67.3964 1.604 67.2364C1.668 67.1244 1.764 66.9404 1.892 66.6844C2.036 66.4124 2.18 66.0924 2.324 65.7244C2.468 65.3404 2.58 64.9564 2.66 64.5724L4.748 65.0524C4.524 65.7244 4.212 66.3884 3.812 67.0444C3.428 67.7004 3.068 68.2364 2.732 68.6524V68.7004C2.732 68.7004 2.636 68.7564 2.444 68.8684C2.268 68.9804 2.084 69.1164 1.892 69.2764C1.7 69.4364 1.604 69.5884 1.604 69.7324ZM1.604 69.7324L1.556 68.2444L2.468 67.6684L5.612 67.4764C5.516 67.7484 5.42 68.0524 5.324 68.3884C5.228 68.7244 5.164 69.0044 5.132 69.2284C4.268 69.2924 3.604 69.3564 3.14 69.4204C2.676 69.4684 2.332 69.5164 2.108 69.5644C1.884 69.6124 1.716 69.6684 1.604 69.7324ZM7.628 73.4284C7.58 73.2044 7.484 72.8844 7.34 72.4684C7.196 72.0524 7.068 71.7084 6.956 71.4364C7.18 71.3884 7.388 71.2844 7.58 71.1244C7.788 70.9644 8.012 70.7564 8.252 70.5004C8.428 70.3244 8.692 70.0204 9.044 69.5884C9.412 69.1564 9.796 68.6364 10.196 68.0284C10.612 67.4204 10.98 66.7964 11.3 66.1564L13.46 66.9004C12.788 67.9244 12.052 68.9244 11.252 69.9004C10.468 70.8604 9.692 71.6764 8.924 72.3484V72.3724C8.924 72.3724 8.86 72.4124 8.732 72.4924C8.604 72.5564 8.452 72.6444 8.276 72.7564C8.1 72.8684 7.948 72.9804 7.82 73.0924C7.692 73.2044 7.628 73.3164 7.628 73.4284ZM7.628 73.4524L7.604 71.8924L8.564 71.2684L12.716 70.9804C12.748 71.2524 12.804 71.5564 12.884 71.8924C12.964 72.2124 13.036 72.4924 13.1 72.7324C12.028 72.8284 11.156 72.9084 10.484 72.9724C9.828 73.0364 9.308 73.1004 8.924 73.1644C8.54 73.2124 8.26 73.2604 8.084 73.3084C7.908 73.3564 7.756 73.4044 7.628 73.4524ZM7.604 69.6844C7.556 69.4604 7.452 69.1484 7.292 68.7484C7.148 68.3324 7.02 67.9964 6.908 67.7404C7.052 67.7084 7.18 67.6444 7.292 67.5484C7.42 67.4524 7.54 67.3244 7.652 67.1644C7.732 67.0524 7.852 66.8684 8.012 66.6124C8.172 66.3564 8.332 66.0444 8.492 65.6764C8.668 65.3084 8.812 64.9244 8.924 64.5244L11.084 65.1004C10.78 65.7564 10.412 66.4044 9.98 67.0444C9.548 67.6684 9.14 68.1804 8.756 68.5804V68.6044C8.756 68.6044 8.66 68.6684 8.468 68.7964C8.276 68.9084 8.084 69.0524 7.892 69.2284C7.7 69.3884 7.604 69.5404 7.604 69.6844ZM7.604 69.6844L7.58 68.1484L8.516 67.5724L11.66 67.3804C11.58 67.6524 11.5 67.9564 11.42 68.2924C11.34 68.6284 11.284 68.9164 11.252 69.1564C10.372 69.2204 9.684 69.2844 9.188 69.3484C8.708 69.4124 8.356 69.4684 8.132 69.5164C7.908 69.5644 7.732 69.6204 7.604 69.6844ZM29.852 68.5324L32.948 69.3484C32.58 70.2924 32.14 71.2364 31.628 72.1804C31.116 73.1084 30.572 73.9804 29.996 74.7964C29.436 75.6124 28.868 76.3244 28.292 76.9324C28.084 76.7564 27.812 76.5564 27.476 76.3324C27.156 76.1084 26.82 75.8924 26.468 75.6844C26.132 75.4764 25.844 75.3004 25.604 75.1564C26.484 74.3724 27.3 73.3884 28.052 72.2044C28.82 71.0044 29.42 69.7804 29.852 68.5324ZM41.516 69.5164L44.276 68.3164C44.82 69.0524 45.356 69.8524 45.884 70.7164C46.428 71.5644 46.916 72.4044 47.348 73.2364C47.796 74.0684 48.124 74.8284 48.332 75.5164L45.308 76.8604C45.132 76.2044 44.844 75.4524 44.444 74.6044C44.044 73.7404 43.588 72.8684 43.076 71.9884C42.564 71.0924 42.044 70.2684 41.516 69.5164ZM28.652 57.9484H45.668V60.8044H28.652V57.9484ZM26.444 63.8524H47.9V66.7324H26.444V63.8524ZM35.468 64.6684H38.516V78.9244H35.468V64.6684ZM66.98 58.5484L69.14 57.0844C69.572 57.4524 70.012 57.8684 70.46 58.3324C70.924 58.7804 71.356 59.2364 71.756 59.7004C72.172 60.1484 72.492 60.5644 72.716 60.9484L70.388 62.5564C70.196 62.1724 69.908 61.7484 69.524 61.2844C69.156 60.8044 68.748 60.3324 68.3 59.8684C67.852 59.3884 67.412 58.9484 66.98 58.5484ZM51.26 63.2524H72.908V65.9644H51.26V63.2524ZM50.804 70.0204C51.764 69.8764 52.884 69.7004 54.164 69.4924C55.444 69.2844 56.796 69.0524 58.22 68.7964C59.66 68.5404 61.076 68.2924 62.468 68.0524L62.66 70.6444C61.38 70.9164 60.076 71.1884 58.748 71.4604C57.436 71.7324 56.156 71.9964 54.908 72.2524C53.676 72.4924 52.54 72.7164 51.5 72.9244L50.804 70.0204ZM55.796 59.3644H58.7V75.5884C58.7 76.3724 58.604 76.9804 58.412 77.4124C58.236 77.8444 57.908 78.1724 57.428 78.3964C56.948 78.6204 56.348 78.7644 55.628 78.8284C54.908 78.9084 54.052 78.9484 53.06 78.9484C53.028 78.6764 52.956 78.3644 52.844 78.0124C52.732 77.6604 52.604 77.3084 52.46 76.9564C52.332 76.6044 52.196 76.3004 52.052 76.0444C52.724 76.0764 53.372 76.0924 53.996 76.0924C54.62 76.0924 55.036 76.0844 55.244 76.0684C55.452 76.0684 55.596 76.0364 55.676 75.9724C55.756 75.8924 55.796 75.7564 55.796 75.5644V59.3644ZM60.716 56.5804L62.684 59.0284C61.644 59.3484 60.516 59.6364 59.3 59.8924C58.084 60.1324 56.844 60.3484 55.58 60.5404C54.332 60.7324 53.124 60.8924 51.956 61.0204C51.908 60.6844 51.796 60.2764 51.62 59.7964C51.46 59.3164 51.3 58.9164 51.14 58.5964C52.26 58.4524 53.404 58.2764 54.572 58.0684C55.74 57.8604 56.852 57.6284 57.908 57.3724C58.964 57.1164 59.9 56.8524 60.716 56.5804ZM63.092 56.6044H66.092C66.06 58.5404 66.108 60.4524 66.236 62.3404C66.38 64.2284 66.588 66.0044 66.86 67.6684C67.132 69.3164 67.452 70.7804 67.82 72.0604C68.188 73.3244 68.58 74.3164 68.996 75.0364C69.412 75.7564 69.844 76.1164 70.292 76.1164C70.548 76.1164 70.74 75.8044 70.868 75.1804C71.012 74.5564 71.116 73.5324 71.18 72.1084C71.484 72.4284 71.86 72.7484 72.308 73.0684C72.756 73.3724 73.172 73.6044 73.556 73.7644C73.396 75.1724 73.18 76.2524 72.908 77.0044C72.636 77.7724 72.26 78.3004 71.78 78.5884C71.316 78.8924 70.724 79.0444 70.004 79.0444C69.172 79.0444 68.42 78.7404 67.748 78.1324C67.092 77.5404 66.508 76.7084 65.996 75.6364C65.5 74.5644 65.068 73.3164 64.7 71.8924C64.348 70.4524 64.052 68.9004 63.812 67.2364C63.572 65.5564 63.396 63.8124 63.284 62.0044C63.172 60.1964 63.108 58.3964 63.092 56.6044ZM69.62 66.7564L72.14 67.8604C71.324 69.3484 70.356 70.7324 69.236 72.0124C68.116 73.2924 66.892 74.4524 65.564 75.4924C64.236 76.5164 62.844 77.4124 61.388 78.1804C61.18 77.8284 60.892 77.4364 60.524 77.0044C60.172 76.5724 59.812 76.1964 59.444 75.8764C60.82 75.2364 62.148 74.4604 63.428 73.5484C64.724 72.6364 65.9 71.6044 66.956 70.4524C68.012 69.3004 68.9 68.0684 69.62 66.7564ZM78.452 60.3244H85.82V76.4764H78.452V73.9564H83.228V62.8204H78.452V60.3244ZM76.772 60.3244H79.388V78.2524H76.772V60.3244ZM78.356 66.7324H84.476V69.2284H78.356V66.7324ZM80.204 56.4124L83.324 56.8684C83.068 57.6844 82.788 58.4924 82.484 59.2924C82.196 60.0924 81.932 60.7724 81.692 61.3324L79.388 60.8044C79.5 60.3884 79.604 59.9244 79.7 59.4124C79.812 58.9004 79.916 58.3804 80.012 57.8524C80.108 57.3244 80.172 56.8444 80.204 56.4124ZM88.988 60.1324H96.02V62.7724H88.988V60.1324ZM95.012 60.1324H97.676C97.676 60.1324 97.676 60.2204 97.676 60.3964C97.676 60.5564 97.676 60.7404 97.676 60.9484C97.676 61.1564 97.668 61.3164 97.652 61.4284C97.588 64.1324 97.508 66.4284 97.412 68.3164C97.332 70.1884 97.228 71.7404 97.1 72.9724C96.988 74.1884 96.852 75.1404 96.692 75.8284C96.532 76.5164 96.324 77.0204 96.068 77.3404C95.748 77.8044 95.404 78.1244 95.036 78.3004C94.668 78.4764 94.244 78.6044 93.764 78.6844C93.3 78.7484 92.724 78.7724 92.036 78.7564C91.364 78.7564 90.676 78.7484 89.972 78.7324C89.956 78.3324 89.86 77.8604 89.684 77.3164C89.508 76.7884 89.292 76.3244 89.036 75.9244C89.804 75.9884 90.516 76.0284 91.172 76.0444C91.844 76.0604 92.332 76.0684 92.636 76.0684C92.876 76.0684 93.068 76.0444 93.212 75.9964C93.372 75.9324 93.524 75.8204 93.668 75.6604C93.876 75.4524 94.044 75.0284 94.172 74.3884C94.316 73.7324 94.436 72.8124 94.532 71.6284C94.628 70.4444 94.716 68.9484 94.796 67.1404C94.876 65.3324 94.948 63.1804 95.012 60.6844V60.1324ZM89.06 56.4364L91.844 57.0844C91.54 58.2524 91.164 59.4204 90.716 60.5884C90.284 61.7564 89.804 62.8604 89.276 63.9004C88.764 64.9244 88.236 65.8204 87.692 66.5884C87.532 66.4284 87.3 66.2444 86.996 66.0364C86.708 65.8124 86.412 65.5964 86.108 65.3884C85.82 65.1804 85.564 65.0204 85.34 64.9084C85.868 64.2204 86.364 63.4284 86.828 62.5324C87.308 61.6204 87.732 60.6444 88.1 59.6044C88.484 58.5484 88.804 57.4924 89.06 56.4364ZM87.884 67.0684L90.14 65.7964C90.54 66.3404 90.964 66.9404 91.412 67.5964C91.86 68.2524 92.284 68.8924 92.684 69.5164C93.084 70.1404 93.412 70.6924 93.668 71.1724L91.22 72.6604C90.996 72.1644 90.692 71.5964 90.308 70.9564C89.94 70.3164 89.54 69.6604 89.108 68.9884C88.692 68.3004 88.284 67.6604 87.884 67.0684ZM101.132 66.9484H122.828V69.8764H101.132V66.9484ZM104.876 56.7004L107.924 57.3484C107.62 58.5004 107.244 59.6284 106.796 60.7324C106.364 61.8204 105.892 62.8444 105.38 63.8044C104.868 64.7484 104.324 65.5804 103.748 66.3004C103.54 66.1404 103.26 65.9644 102.908 65.7724C102.572 65.5644 102.228 65.3724 101.876 65.1964C101.524 65.0044 101.22 64.8604 100.964 64.7644C101.556 64.1404 102.1 63.3964 102.596 62.5324C103.092 61.6684 103.532 60.7404 103.916 59.7484C104.316 58.7404 104.636 57.7244 104.876 56.7004ZM105.572 60.2284H120.764V63.1564H104.132L105.572 60.2284ZM113.468 67.5484C114.188 69.8204 115.364 71.6924 116.996 73.1644C118.628 74.6364 120.82 75.6604 123.572 76.2364C123.348 76.4444 123.108 76.7084 122.852 77.0284C122.612 77.3484 122.38 77.6764 122.156 78.0124C121.948 78.3644 121.772 78.6844 121.628 78.9724C119.644 78.4604 117.956 77.7164 116.564 76.7404C115.172 75.7644 114.004 74.5644 113.06 73.1404C112.132 71.7164 111.356 70.0604 110.732 68.1724L113.468 67.5484ZM110.348 56.4124H113.372V64.0684C113.372 65.1884 113.3 66.3244 113.156 67.4764C113.028 68.6284 112.756 69.7564 112.34 70.8604C111.924 71.9644 111.316 73.0204 110.516 74.0284C109.716 75.0204 108.66 75.9404 107.348 76.7884C106.052 77.6204 104.444 78.3324 102.524 78.9244C102.412 78.6844 102.244 78.4044 102.02 78.0844C101.812 77.7644 101.588 77.4444 101.348 77.1244C101.108 76.8204 100.884 76.5724 100.676 76.3804C102.404 75.8844 103.852 75.2844 105.02 74.5804C106.188 73.8764 107.124 73.1084 107.828 72.2764C108.548 71.4444 109.084 70.5724 109.436 69.6604C109.804 68.7324 110.044 67.7964 110.156 66.8524C110.284 65.9084 110.348 64.9724 110.348 64.0444V56.4124ZM134.276 69.2764H146.948V71.8684H134.276V69.2764ZM132.884 75.6844H148.172V78.3004H132.884V75.6844ZM133.244 59.0284H148.004V63.5404H145.388V61.4044H135.74V63.6124H133.244V59.0284ZM139.076 70.5244H141.908V76.9324H139.076V70.5244ZM125.516 69.3964C126.476 69.1564 127.628 68.8444 128.972 68.4604C130.332 68.0604 131.7 67.6524 133.076 67.2364L133.508 69.7804C132.244 70.2124 130.956 70.6364 129.644 71.0524C128.348 71.4684 127.156 71.8524 126.068 72.2044L125.516 69.3964ZM125.852 60.9964H132.956V63.6604H125.852V60.9964ZM128.348 56.4364H130.988V75.9244C130.988 76.5804 130.916 77.1004 130.772 77.4844C130.644 77.8844 130.396 78.1964 130.028 78.4204C129.676 78.6444 129.228 78.7964 128.684 78.8764C128.156 78.9564 127.492 78.9884 126.692 78.9724C126.66 78.6204 126.572 78.1804 126.428 77.6524C126.284 77.1404 126.124 76.6924 125.948 76.3084C126.396 76.3244 126.804 76.3404 127.172 76.3564C127.556 76.3564 127.82 76.3484 127.964 76.3324C128.108 76.3324 128.204 76.3084 128.252 76.2604C128.316 76.1964 128.348 76.0844 128.348 75.9244V56.4364ZM138.212 56.9884L140.9 56.1964C141.188 56.7404 141.476 57.3324 141.764 57.9724C142.052 58.6124 142.276 59.1644 142.436 59.6284L139.676 60.5644C139.532 60.0844 139.316 59.5084 139.028 58.8364C138.756 58.1644 138.484 57.5484 138.212 56.9884ZM137.468 61.0204H140.084C140.036 62.0284 139.94 62.9244 139.796 63.7084C139.652 64.4764 139.388 65.1644 139.004 65.7724C138.636 66.3644 138.1 66.8764 137.396 67.3084C136.708 67.7404 135.804 68.0924 134.684 68.3644C134.588 68.0604 134.404 67.7004 134.132 67.2844C133.86 66.8684 133.596 66.5484 133.34 66.3244C134.252 66.1164 134.972 65.8684 135.5 65.5804C136.044 65.2924 136.452 64.9404 136.724 64.5244C137.012 64.0924 137.204 63.5884 137.3 63.0124C137.396 62.4364 137.452 61.7724 137.468 61.0204ZM141.26 60.7804H143.828V64.6924C143.828 64.9964 143.86 65.2124 143.924 65.3404C143.988 65.4684 144.124 65.5324 144.332 65.5324C144.412 65.5324 144.54 65.5324 144.716 65.5324C144.892 65.5324 145.084 65.5324 145.292 65.5324C145.5 65.5324 145.692 65.5324 145.868 65.5324C146.044 65.5324 146.18 65.5324 146.276 65.5324C146.5 65.5324 146.764 65.5244 147.068 65.5084C147.372 65.4764 147.612 65.4364 147.788 65.3884C147.82 65.7244 147.852 66.1084 147.884 66.5404C147.916 66.9724 147.964 67.3404 148.028 67.6444C147.836 67.7244 147.58 67.7804 147.26 67.8124C146.956 67.8284 146.644 67.8364 146.324 67.8364C146.228 67.8364 146.084 67.8364 145.892 67.8364C145.7 67.8364 145.492 67.8364 145.268 67.8364C145.044 67.8364 144.836 67.8364 144.644 67.8364C144.452 67.8364 144.308 67.8364 144.212 67.8364C143.412 67.8364 142.796 67.7324 142.364 67.5244C141.948 67.3004 141.66 66.9564 141.5 66.4924C141.34 66.0284 141.26 65.4204 141.26 64.6684V60.7804ZM166.988 58.8364H170.012V75.3244C170.012 76.1884 169.9 76.8524 169.676 77.3164C169.452 77.7964 169.044 78.1564 168.452 78.3964C167.876 78.6364 167.14 78.7804 166.244 78.8284C165.348 78.8924 164.284 78.9244 163.052 78.9244C162.988 78.6364 162.892 78.3004 162.764 77.9164C162.636 77.5484 162.484 77.1804 162.308 76.8124C162.148 76.4444 161.988 76.1324 161.828 75.8764C162.42 75.8924 163.012 75.9084 163.604 75.9244C164.212 75.9404 164.756 75.9484 165.236 75.9484C165.716 75.9484 166.052 75.9484 166.244 75.9484C166.516 75.9484 166.708 75.9004 166.82 75.8044C166.932 75.7084 166.988 75.5324 166.988 75.2764V58.8364ZM153.284 63.6364H156.068V74.8204H153.284V63.6364ZM154.46 63.6364H163.508V72.9724H154.46V70.2124H160.676V66.3724H154.46V63.6364ZM151.052 58.0204H172.796V60.9484H151.052V58.0204ZM182.132 69.1084L184.46 68.3404C184.764 69.0924 185.076 69.9084 185.396 70.7884C185.716 71.6684 185.996 72.5164 186.236 73.3324C186.492 74.1484 186.676 74.8764 186.788 75.5164L184.268 76.4524C184.172 75.8284 184.012 75.1004 183.788 74.2684C183.564 73.4204 183.308 72.5484 183.02 71.6524C182.732 70.7404 182.436 69.8924 182.132 69.1084ZM178.268 57.0844L180.836 57.6364C180.596 58.8684 180.292 60.0924 179.924 61.3084C179.572 62.5084 179.164 63.6284 178.7 64.6684C178.236 65.7084 177.732 66.6284 177.188 67.4284C177.06 67.2524 176.868 67.0444 176.612 66.8044C176.372 66.5644 176.116 66.3244 175.844 66.0844C175.588 65.8284 175.364 65.6284 175.172 65.4844C175.668 64.8124 176.108 64.0284 176.492 63.1324C176.892 62.2364 177.236 61.2684 177.524 60.2284C177.828 59.1884 178.076 58.1404 178.268 57.0844ZM177.02 77.1244C176.972 76.9324 176.892 76.6764 176.78 76.3564C176.684 76.0364 176.58 75.7004 176.468 75.3484C176.356 74.9964 176.244 74.7004 176.132 74.4604C176.388 74.3804 176.612 74.1884 176.804 73.8844C176.996 73.5804 177.204 73.1564 177.428 72.6124C177.54 72.3564 177.692 71.9484 177.884 71.3884C178.092 70.8124 178.316 70.1324 178.556 69.3484C178.796 68.5644 179.02 67.7244 179.228 66.8284C179.452 65.9324 179.644 65.0364 179.804 64.1404L182.588 64.8364C182.3 66.1004 181.956 67.3804 181.556 68.6764C181.156 69.9564 180.732 71.1804 180.284 72.3484C179.852 73.5164 179.412 74.5724 178.964 75.5164V75.5644C178.964 75.5644 178.868 75.6204 178.676 75.7324C178.484 75.8284 178.252 75.9644 177.98 76.1404C177.724 76.3004 177.5 76.4684 177.308 76.6444C177.116 76.8204 177.02 76.9804 177.02 77.1244ZM176.996 77.1244L176.828 74.9164L177.98 74.0764L185.348 72.7324C185.38 73.0844 185.444 73.4844 185.54 73.9324C185.636 74.3644 185.724 74.7164 185.804 74.9884C184.044 75.3404 182.62 75.6364 181.532 75.8764C180.444 76.1004 179.604 76.2924 179.012 76.4524C178.42 76.5964 177.98 76.7164 177.692 76.8124C177.404 76.9244 177.172 77.0284 176.996 77.1244ZM181.652 57.8764L183.98 56.9644C184.412 57.8444 184.844 58.7884 185.276 59.7964C185.708 60.7884 186.084 61.7644 186.404 62.7244C186.74 63.6684 186.98 64.5164 187.124 65.2684L184.556 66.3724C184.428 65.6364 184.204 64.7804 183.884 63.8044C183.58 62.8284 183.236 61.8284 182.852 60.8044C182.468 59.7644 182.068 58.7884 181.652 57.8764ZM186.092 57.5644H197.852V60.1324H186.092V57.5644ZM189.668 67.1404V68.4364H194.3V67.1404H189.668ZM189.668 70.4764V71.7724H194.3V70.4764H189.668ZM189.668 63.8524V65.1244H194.3V63.8524H189.668ZM187.1 61.6924H196.964V73.9324H187.1V61.6924ZM190.868 59.2684L193.844 59.6764C193.476 60.3644 193.084 61.0444 192.668 61.7164C192.252 62.3724 191.876 62.9404 191.54 63.4204L189.284 62.9644C189.492 62.6124 189.692 62.2204 189.884 61.7884C190.076 61.3404 190.26 60.9004 190.436 60.4684C190.612 60.0364 190.756 59.6364 190.868 59.2684ZM189.452 73.8844L191.708 75.4684C191.1 76.1244 190.34 76.7564 189.428 77.3644C188.516 77.9884 187.604 78.4844 186.692 78.8524C186.532 78.5644 186.316 78.2204 186.044 77.8204C185.788 77.4204 185.532 77.0764 185.276 76.7884C185.788 76.5644 186.308 76.2924 186.836 75.9724C187.364 75.6524 187.86 75.3084 188.324 74.9404C188.788 74.5564 189.164 74.2044 189.452 73.8844ZM192.524 75.5884L193.94 73.7164C194.42 73.9884 194.932 74.3084 195.476 74.6764C196.02 75.0284 196.548 75.3884 197.06 75.7564C197.572 76.1084 197.988 76.4284 198.308 76.7164L196.82 78.8284C196.516 78.5244 196.116 78.1724 195.62 77.7724C195.14 77.3884 194.628 77.0044 194.084 76.6204C193.54 76.2364 193.02 75.8924 192.524 75.5884Z" fill="#B65A0F"/>
<defs>
<filter id="filter0_d_631_222" x="95.0647" y="6.64818" width="34.2664" height="38.0116" filterUnits="userSpaceOnUse" color-interpolation-filters="sRGB">
<feFlood flood-opacity="0" result="BackgroundImageFix"/>
<feColorMatrix in="SourceAlpha" type="matrix" values="0 0 0 0 0 0 0 0 0 0 0 0 0 0 0 0 0 0 127 0" result="hardAlpha"/>
<feOffset/>
<feGaussianBlur stdDeviation="2.33216"/>
<feComposite in2="hardAlpha" operator="out"/>
<feColorMatrix type="matrix" values="0 0 0 0 1 0 0 0 0 1 0 0 0 0 1 0 0 0 0.1 0"/>
<feBlend mode="normal" in2="BackgroundImageFix" result="effect1_dropShadow_631_222"/>
<feBlend mode="normal" in="SourceGraphic" in2="effect1_dropShadow_631_222" result="shape"/>
</filter>
<filter id="filter1_d_631_222" x="69.5354" y="6.64818" width="34.2664" height="38.0116" filterUnits="userSpaceOnUse" color-interpolation-filters="sRGB">
<feFlood flood-opacity="0" result="BackgroundImageFix"/>
<feColorMatrix in="SourceAlpha" type="matrix" values="0 0 0 0 0 0 0 0 0 0 0 0 0 0 0 0 0 0 127 0" result="hardAlpha"/>
<feOffset/>
<feGaussianBlur stdDeviation="2.33216"/>
<feComposite in2="hardAlpha" operator="out"/>
<feColorMatrix type="matrix" values="0 0 0 0 1 0 0 0 0 1 0 0 0 0 1 0 0 0 0.1 0"/>
<feBlend mode="normal" in2="BackgroundImageFix" result="effect1_dropShadow_631_222"/>
<feBlend mode="normal" in="SourceGraphic" in2="effect1_dropShadow_631_222" result="shape"/>
</filter>
<filter id="filter2_d_631_222" x="83.3711" y="0.148062" width="32.1553" height="45.2439" filterUnits="userSpaceOnUse" color-interpolation-filters="sRGB">
<feFlood flood-opacity="0" result="BackgroundImageFix"/>
<feColorMatrix in="SourceAlpha" type="matrix" values="0 0 0 0 0 0 0 0 0 0 0 0 0 0 0 0 0 0 127 0" result="hardAlpha"/>
<feOffset/>
<feGaussianBlur stdDeviation="2.33216"/>
<feComposite in2="hardAlpha" operator="out"/>
<feColorMatrix type="matrix" values="0 0 0 0 1 0 0 0 0 1 0 0 0 0 1 0 0 0 0.1 0"/>
<feBlend mode="normal" in2="BackgroundImageFix" result="effect1_dropShadow_631_222"/>
<feBlend mode="normal" in="SourceGraphic" in2="effect1_dropShadow_631_222" result="shape"/>
</filter>
</defs>
</svg>
